<svg id='photo-ai_24' width='24' height='24' viewBox='0 0 24 24' xmlns='http://www.w3.org/2000/svg' xmlns:xlink='http://www.w3.org/1999/xlink'><rect width='24' height='24' stroke='none' fill='#000000' opacity='0'/>


<g transform="matrix(1 0 0 1 12 12)" >
<g style="" >
<g transform="matrix(1 0 0 1 0 0)" >
<path style="stroke: none; stroke-width: 2; stroke-dasharray: none; stroke-linecap: round; stroke-dashoffset: 0; stroke-linejoin: round; stroke-miterlimit: 4; fill: none; fill-rule: nonzero; opacity: 1;" transform=" translate(-12, -12)" d="M 0 0 L 24 0 L 24 24 L 0 24 z" stroke-linecap="round" />
</g>
<g transform="matrix(1 0 0 1 3 -4)" >
<path style="stroke: rgb(0,0,0); stroke-width: 2; stroke-dasharray: none; stroke-linecap: round; stroke-dashoffset: 0; stroke-linejoin: round; stroke-miterlimit: 4; fill: none; fill-rule: nonzero; opacity: 1;" transform=" translate(-15, -8)" d="M 15 8 L 15.01 8" stroke-linecap="round" />
</g>
<g transform="matrix(1 0 0 1 0 0)" >
<path style="stroke: rgb(0,0,0); stroke-width: 2; stroke-dasharray: none; stroke-linecap: round; stroke-dashoffset: 0; stroke-linejoin: round; stroke-miterlimit: 4; fill: none; fill-rule: nonzero; opacity: 1;" transform=" translate(-12, -12)" d="M 10 21 L 6 21 C 4.343145750507619 21 3 19.65685424949238 3 18 L 3 6 C 3 4.343145750507619 4.343145750507619 3 6 3 L 18 3 C 19.65685424949238 3 21 4.3431457505076185 21 5.999999999999999 L 21 11" stroke-linecap="round" />
</g>
<g transform="matrix(1 0 0 1 -4.5 1.17)" >
<path style="stroke: rgb(0,0,0); stroke-width: 2; stroke-dasharray: none; stroke-linecap: round; stroke-dashoffset: 0; stroke-linejoin: round; stroke-miterlimit: 4; fill: none; fill-rule: nonzero; opacity: 1;" transform=" translate(-7.5, -13.17)" d="M 3 16 L 8 11 C 8.928 10.107 10.072 10.107 11 11 L 12 12" stroke-linecap="round" />
</g>
<g transform="matrix(1 0 0 1 4 6)" >
<path style="stroke: rgb(0,0,0); stroke-width: 2; stroke-dasharray: none; stroke-linecap: round; stroke-dashoffset: 0; stroke-linejoin: round; stroke-miterlimit: 4; fill: none; fill-rule: nonzero; opacity: 1;" transform=" translate(-16, -18)" d="M 14 21 L 14 17 C 14 15.895430500338414 14.895430500338414 15 16 15 C 17.104569499661586 15 18 15.895430500338414 18 17 L 18 21" stroke-linecap="round" />
</g>
<g transform="matrix(1 0 0 1 4 7)" >
<path style="stroke: rgb(0,0,0); stroke-width: 2; stroke-dasharray: none; stroke-linecap: round; stroke-dashoffset: 0; stroke-linejoin: round; stroke-miterlimit: 4; fill: none; fill-rule: nonzero; opacity: 1;" transform=" translate(-16, -19)" d="M 14 19 L 18 19" stroke-linecap="round" />
</g>
<g transform="matrix(1 0 0 1 9 6)" >
<path style="stroke: rgb(0,0,0); stroke-width: 2; stroke-dasharray: none; stroke-linecap: round; stroke-dashoffset: 0; stroke-linejoin: round; stroke-miterlimit: 4; fill: none; fill-rule: nonzero; opacity: 1;" transform=" translate(-21, -18)" d="M 21 15 L 21 21" stroke-linecap="round" />
</g>
</g>
</g>
</svg>
